<svg width="2285" height="1347" xmlns="http://www.w3.org/2000/svg" xmlns:xlink="http://www.w3.org/1999/xlink" xml:space="preserve" overflow="hidden"><defs><clipPath id="clip0"><rect x="2000" y="167" width="2285" height="1347"/></clipPath></defs><g clip-path="url(#clip0)" transform="translate(-2000 -167)"><rect x="2001" y="168" width="2282" height="1344" fill="#FFFFFF"/><g><path d="M2132.5 1078.54 4232.5 1078.54M2132.5 973.532 4232.5 973.532M2132.5 867.529 4232.5 867.529M2132.5 761.525 4232.5 761.525M2132.5 655.522 4232.5 655.522M2132.5 549.518 4232.5 549.518M2132.5 444.515 4232.5 444.515M2132.5 338.5 4232.5 338.5" stroke="#D9D9D9" stroke-width="3.4375" stroke-linejoin="round" stroke-miterlimit="10" fill="none"/></g><g><rect x="2162" y="867" width="28.0002" height="318"/></g><g><rect x="2250" y="444" width="27.0002" height="741" fill="#FFC000"/></g><g><rect x="2337" y="762" width="27.9998" height="423" fill="#7F7F7F"/></g><g><rect x="2425" y="973" width="26.9998" height="212" fill="#156082"/></g><g><rect x="2512" y="994" width="27.9998" height="191" fill="#196B24"/></g><g><rect x="2600" y="1079" width="26.9998" height="106" fill="#4EA72E"/></g><g><rect x="2687" y="550" width="27.9998" height="635" fill="#80350E"/></g><g><rect x="2775" y="656" width="26.9998" height="529" fill="#7F7F7F"/></g><g><rect x="2950" y="1026" width="26.9998" height="159" fill="#00B0F0"/></g><g><rect x="3037" y="920" width="27.9998" height="265" fill="#196B24"/></g><g><rect x="3125" y="994" width="26.9998" height="191" fill="#4EA72E"/></g><g><rect x="3212" y="603" width="27.9998" height="582" fill="#80350E"/></g><g><rect x="3300" y="603" width="27.0002" height="582" fill="#7F7F7F"/></g><g><rect x="3475" y="1079" width="27.0002" height="106" fill="#00B0F0"/></g><g><rect x="3563" y="973" width="27.0002" height="212" fill="#196B24"/></g><g><rect x="3650" y="1000" width="28.0002" height="185" fill="#4EA72E"/></g><g><rect x="3738" y="1079" width="27.0002" height="106"/></g><g><rect x="3825" y="550" width="28.0002" height="635" fill="#80350E"/></g><g><rect x="3913" y="867" width="27.0002" height="318" fill="#7F7F7F"/></g><g><rect x="4088" y="920" width="27.0002" height="265" fill="#196B24"/></g><g><rect x="4175" y="1079" width="28" height="106" fill="#4EA72E"/></g><g><path d="M2862.09 1026.03 2890.09 1026.03 2890.09 1185 2862.09 1185ZM3387.11 973.032 3415.11 973.032 3415.11 1185 3387.11 1185ZM4000.13 761.025 4027.13 761.025 4027.13 1185 4000.13 1185Z" fill="#156082"/></g><g><path d="M2132.5 1184.5 4232.5 1184.5" stroke="#D9D9D9" stroke-width="3.4375" stroke-linejoin="round" stroke-miterlimit="10" fill="none" fill-rule="evenodd"/></g><g><path d="M2132.5 1184.5 2132.5 1409.5M2657.59 1184.5 2657.59 1409.5M3182.6 1184.5 3182.6 1409.5M3707.62 1184.5 3707.62 1409.5M4232.5 1184.5 4232.5 1409.5" stroke="#D9D9D9" stroke-width="3.4375" stroke-linejoin="round" stroke-miterlimit="10" fill="none"/></g><g><path d="M2132.5 1409.5 2132.5 1489.5M2657.59 1409.5 2657.59 1489.5M3182.6 1409.5 3182.6 1489.5M3707.62 1409.5 3707.62 1489.5M4232.5 1409.5 4232.5 1489.5" stroke="#D9D9D9" stroke-width="3.4375" stroke-linejoin="round" stroke-miterlimit="10" fill="none"/></g><g><text fill="#595959" font-family="Aptos Narrow,Aptos Narrow_MSFontService,sans-serif" font-weight="400" font-stretch="semi-condensed" font-size="41" transform="matrix(1 0 0 1 2073.08 1196)">0</text></g><g><text fill="#595959" font-family="Aptos Narrow,Aptos Narrow_MSFontService,sans-serif" font-weight="400" font-stretch="semi-condensed" font-size="41" transform="matrix(1 0 0 1 2031.28 1090)">100</text></g><g><text fill="#595959" font-family="Aptos Narrow,Aptos Narrow_MSFontService,sans-serif" font-weight="400" font-stretch="semi-condensed" font-size="41" transform="matrix(1 0 0 1 2031.28 985)">200</text></g><g><text fill="#595959" font-family="Aptos Narrow,Aptos Narrow_MSFontService,sans-serif" font-weight="400" font-stretch="semi-condensed" font-size="41" transform="matrix(1 0 0 1 2031.28 879)">300</text></g><g><text fill="#595959" font-family="Aptos Narrow,Aptos Narrow_MSFontService,sans-serif" font-weight="400" font-stretch="semi-condensed" font-size="41" transform="matrix(1 0 0 1 2031.28 773)">400</text></g><g><text fill="#595959" font-family="Aptos Narrow,Aptos Narrow_MSFontService,sans-serif" font-weight="400" font-stretch="semi-condensed" font-size="41" transform="matrix(1 0 0 1 2031.28 667)">500</text></g><g><text fill="#595959" font-family="Aptos Narrow,Aptos Narrow_MSFontService,sans-serif" font-weight="400" font-stretch="semi-condensed" font-size="41" transform="matrix(1 0 0 1 2031.28 562)">600</text></g><g><text fill="#595959" font-family="Aptos Narrow,Aptos Narrow_MSFontService,sans-serif" font-weight="400" font-stretch="semi-condensed" font-size="41" transform="matrix(1 0 0 1 2031.28 456)">700</text></g><g><text fill="#595959" font-family="Aptos Narrow,Aptos Narrow_MSFontService,sans-serif" font-weight="400" font-stretch="semi-condensed" font-size="41" transform="matrix(1 0 0 1 2031.28 350)">800</text></g><g><text fill="#595959" font-family="Aptos Narrow,Aptos Narrow_MSFontService,sans-serif" font-weight="400" font-stretch="semi-condensed" font-size="41" transform="matrix(6.12323e-17 -1 1 6.12323e-17 2189.65 1257)">Oil</text></g><g><text fill="#595959" font-family="Aptos Narrow,Aptos Narrow_MSFontService,sans-serif" font-weight="400" font-stretch="semi-condensed" font-size="41" transform="matrix(6.12323e-17 -1 1 6.12323e-17 2277.18 1341)">Nuclear</text></g><g><text fill="#595959" font-family="Aptos Narrow,Aptos Narrow_MSFontService,sans-serif" font-weight="400" font-stretch="semi-condensed" font-size="41" transform="matrix(6.12323e-17 -1 1 6.12323e-17 2364.7 1405)">Gas (CCGT)</text></g><g><text fill="#595959" font-family="Aptos Narrow,Aptos Narrow_MSFontService,sans-serif" font-weight="400" font-stretch="semi-condensed" font-size="41" transform="matrix(6.12323e-17 -1 1 6.12323e-17 2452.23 1407)">Gas (OCGT)</text></g><g><text fill="#595959" font-family="Aptos Narrow,Aptos Narrow_MSFontService,sans-serif" font-weight="400" font-stretch="semi-condensed" font-size="41" transform="matrix(6.12323e-17 -1 1 6.12323e-17 2539.76 1295)">Wind</text></g><g><text fill="#595959" font-family="Aptos Narrow,Aptos Narrow_MSFontService,sans-serif" font-weight="400" font-stretch="semi-condensed" font-size="41" transform="matrix(6.12323e-17 -1 1 6.12323e-17 2627.28 1296)">Solar</text></g><g><text fill="#595959" font-family="Aptos Narrow,Aptos Narrow_MSFontService,sans-serif" font-weight="400" font-stretch="semi-condensed" font-size="41" transform="matrix(6.12323e-17 -1 1 6.12323e-17 2714.81 1287)">Coal</text></g><g><text fill="#595959" font-family="Aptos Narrow,Aptos Narrow_MSFontService,sans-serif" font-weight="400" font-stretch="semi-condensed" font-size="41" transform="matrix(6.12323e-17 -1 1 6.12323e-17 2802.34 1405)">Gas (CCGT)</text></g><g><text fill="#595959" font-family="Aptos Narrow,Aptos Narrow_MSFontService,sans-serif" font-weight="400" font-stretch="semi-condensed" font-size="41" transform="matrix(6.12323e-17 -1 1 6.12323e-17 2889.86 1407)">Gas (OCGT)</text></g><g><text fill="#595959" font-family="Aptos Narrow,Aptos Narrow_MSFontService,sans-serif" font-weight="400" font-stretch="semi-condensed" font-size="41" transform="matrix(6.12323e-17 -1 1 6.12323e-17 2977.39 1309)">Hydro</text></g><g><text fill="#595959" font-family="Aptos Narrow,Aptos Narrow_MSFontService,sans-serif" font-weight="400" font-stretch="semi-condensed" font-size="41" transform="matrix(6.12323e-17 -1 1 6.12323e-17 3064.92 1295)">Wind</text></g><g><text fill="#595959" font-family="Aptos Narrow,Aptos Narrow_MSFontService,sans-serif" font-weight="400" font-stretch="semi-condensed" font-size="41" transform="matrix(6.12323e-17 -1 1 6.12323e-17 3152.45 1296)">Solar</text></g><g><text fill="#595959" font-family="Aptos Narrow,Aptos Narrow_MSFontService,sans-serif" font-weight="400" font-stretch="semi-condensed" font-size="41" transform="matrix(6.12323e-17 -1 1 6.12323e-17 3239.97 1287)">Coal</text></g><g><text fill="#595959" font-family="Aptos Narrow,Aptos Narrow_MSFontService,sans-serif" font-weight="400" font-stretch="semi-condensed" font-size="41" transform="matrix(6.12323e-17 -1 1 6.12323e-17 3327.5 1405)">Gas (CCGT)</text></g><g><text fill="#595959" font-family="Aptos Narrow,Aptos Narrow_MSFontService,sans-serif" font-weight="400" font-stretch="semi-condensed" font-size="41" transform="matrix(6.12323e-17 -1 1 6.12323e-17 3415.03 1407)">Gas (OCGT)</text></g><g><text fill="#595959" font-family="Aptos Narrow,Aptos Narrow_MSFontService,sans-serif" font-weight="400" font-stretch="semi-condensed" font-size="41" transform="matrix(6.12323e-17 -1 1 6.12323e-17 3502.55 1309)">Hydro</text></g><g><text fill="#595959" font-family="Aptos Narrow,Aptos Narrow_MSFontService,sans-serif" font-weight="400" font-stretch="semi-condensed" font-size="41" transform="matrix(6.12323e-17 -1 1 6.12323e-17 3590.08 1295)">Wind</text></g><g><text fill="#595959" font-family="Aptos Narrow,Aptos Narrow_MSFontService,sans-serif" font-weight="400" font-stretch="semi-condensed" font-size="41" transform="matrix(6.12323e-17 -1 1 6.12323e-17 3677.61 1296)">Solar</text></g><g><text fill="#595959" font-family="Aptos Narrow,Aptos Narrow_MSFontService,sans-serif" font-weight="400" font-stretch="semi-condensed" font-size="41" transform="matrix(6.12323e-17 -1 1 6.12323e-17 3765.14 1257)">Oil</text></g><g><text fill="#595959" font-family="Aptos Narrow,Aptos Narrow_MSFontService,sans-serif" font-weight="400" font-stretch="semi-condensed" font-size="41" transform="matrix(6.12323e-17 -1 1 6.12323e-17 3852.66 1287)">Coal</text></g><g><text fill="#595959" font-family="Aptos Narrow,Aptos Narrow_MSFontService,sans-serif" font-weight="400" font-stretch="semi-condensed" font-size="41" transform="matrix(6.12323e-17 -1 1 6.12323e-17 3940.19 1405)">Gas (CCGT)</text></g><g><text fill="#595959" font-family="Aptos Narrow,Aptos Narrow_MSFontService,sans-serif" font-weight="400" font-stretch="semi-condensed" font-size="41" transform="matrix(6.12323e-17 -1 1 6.12323e-17 4027.72 1407)">Gas (OCGT)</text></g><g><text fill="#595959" font-family="Aptos Narrow,Aptos Narrow_MSFontService,sans-serif" font-weight="400" font-stretch="semi-condensed" font-size="41" transform="matrix(6.12323e-17 -1 1 6.12323e-17 4115.24 1295)">Wind</text></g><g><text fill="#595959" font-family="Aptos Narrow,Aptos Narrow_MSFontService,sans-serif" font-weight="400" font-stretch="semi-condensed" font-size="41" transform="matrix(6.12323e-17 -1 1 6.12323e-17 4202.77 1296)">Solar</text></g><g><text fill="#595959" font-family="Aptos Narrow,Aptos Narrow_MSFontService,sans-serif" font-weight="400" font-stretch="semi-condensed" font-size="41" transform="matrix(1 0 0 1 2301.05 1475)">Company 1</text></g><g><text fill="#595959" font-family="Aptos Narrow,Aptos Narrow_MSFontService,sans-serif" font-weight="400" font-stretch="semi-condensed" font-size="41" transform="matrix(1 0 0 1 2826.21 1475)">Company 2</text></g><g><text fill="#595959" font-family="Aptos Narrow,Aptos Narrow_MSFontService,sans-serif" font-weight="400" font-stretch="semi-condensed" font-size="41" transform="matrix(1 0 0 1 3351.37 1475)">Company 3</text></g><g><text fill="#595959" font-family="Aptos Narrow,Aptos Narrow_MSFontService,sans-serif" font-weight="400" font-stretch="semi-condensed" font-size="41" transform="matrix(1 0 0 1 3876.54 1475)">Company 4</text></g><g><text fill="#595959" font-family="Aptos Narrow,Aptos Narrow_MSFontService,sans-serif" font-weight="400" font-stretch="semi-condensed" font-size="64" transform="matrix(1 0 0 1 2839.45 263)">Installed Capacity [MW]</text></g><rect x="2001.5" y="168.5" width="2282" height="1344" stroke="#D9D9D9" stroke-width="3.4375" stroke-linejoin="round" stroke-miterlimit="10" fill="none"/></g></svg>